<?xml version="1.0" standalone="no"?>
<!DOCTYPE svg PUBLIC "-//W3C//DTD SVG 20010904//EN"
 "http://www.w3.org/TR/2001/REC-SVG-20010904/DTD/svg10.dtd">
<svg version="1.0" xmlns="http://www.w3.org/2000/svg"
 width="379.000000pt" height="379.000000pt" viewBox="0 0 379.000000 379.000000"
 preserveAspectRatio="xMidYMid meet">
<metadata>
Created by potrace 1.11, written by Peter Selinger 2001-2013
</metadata>
<g transform="translate(0.000000,379.000000) scale(0.100000,-0.100000)"
fill="#000000" stroke="none">
<path d="M1778 3715 c-2 -1 -38 -5 -80 -9 -43 -4 -83 -8 -90 -11 -7 -2 -29 -6
-48 -9 -139 -21 -312 -79 -470 -156 -443 -218 -780 -601 -930 -1059 -38 -116
-64 -223 -75 -316 -4 -27 -8 -61 -11 -75 -6 -31 -5 -324 0 -365 23 -165 23
-165 57 -295 148 -560 578 -1033 1119 -1233 254 -94 560 -133 830 -105 343 35
673 170 945 387 39 31 79 63 90 71 46 35 171 171 234 255 148 196 245 391 309
625 24 83 28 105 47 235 19 131 10 533 -13 557 -4 4 -86 -52 -182 -123 -96
-72 -183 -136 -193 -143 -14 -10 -18 -32 -22 -106 -5 -112 -12 -160 -36 -268
-56 -245 -209 -513 -382 -671 -16 -14 -43 -39 -60 -55 -50 -45 -167 -129 -232
-167 -100 -58 -275 -128 -365 -145 -14 -3 -41 -9 -60 -14 -87 -21 -332 -29
-449 -14 -266 34 -548 163 -747 342 -245 221 -421 544 -461 847 -14 106 -8
362 10 457 59 297 207 561 432 769 65 60 179 149 191 149 4 0 15 6 23 14 26
22 147 83 230 115 173 67 330 95 531 94 111 0 175 -7 285 -33 28 -6 57 -13 65
-15 81 -18 286 -111 368 -167 l43 -29 72 52 c239 175 286 212 281 220 -8 13
-220 152 -289 189 -91 49 -259 115 -365 144 -94 25 -121 31 -190 42 -19 3 -46
8 -60 11 -24 5 -347 12 -352 8z"/>
<path d="M3015 2774 c-176 -129 -376 -276 -445 -327 -68 -50 -136 -100 -150
-109 -14 -9 -137 -100 -275 -201 l-250 -184 -35 19 c-19 10 -72 42 -117 71
-181 114 -527 329 -538 333 -7 3 -10 -76 -10 -258 l0 -261 27 -16 c31 -19 348
-218 537 -337 132 -84 134 -85 159 -68 14 10 78 56 142 103 63 47 408 301 765
564 358 263 661 487 675 497 65 49 61 40 38 90 -37 81 -188 322 -201 320 -1
-1 -146 -106 -322 -236z"/>
</g>
</svg>
